<?xml version="1.0" encoding="utf-8"?>
<svg xmlns="http://www.w3.org/2000/svg" xmlns:xlink="http://www.w3.org/1999/xlink" width="600" height="400" viewBox="0 0 2400 1600">
<defs>
  <clipPath id="clip1000">
    <rect x="0" y="0" width="2400" height="1600"/>
  </clipPath>
</defs>
<polygon clip-path="url(#clip1000)" points="
0,1600 2400,1600 2400,0 0,0 
  " fill="#ffffff" fill-rule="evenodd" fill-opacity="1"/>
<defs>
  <clipPath id="clip1001">
    <rect x="480" y="0" width="1681" height="1600"/>
  </clipPath>
</defs>
<polygon clip-path="url(#clip1000)" points="
242.516,1425.62 2352.76,1425.62 2352.76,121.675 242.516,121.675 
  " fill="#ffffff" fill-rule="evenodd" fill-opacity="1"/>
<defs>
  <clipPath id="clip1002">
    <rect x="242" y="121" width="2111" height="1305"/>
  </clipPath>
</defs>
<polyline clip-path="url(#clip1002)" style="stroke:#000000; stroke-width:2; stroke-opacity:0.1; fill:none" points="
  302.24,1425.62 302.24,121.675 
  "/>
<polyline clip-path="url(#clip1002)" style="stroke:#000000; stroke-width:2; stroke-opacity:0.1; fill:none" points="
  799.938,1425.62 799.938,121.675 
  "/>
<polyline clip-path="url(#clip1002)" style="stroke:#000000; stroke-width:2; stroke-opacity:0.1; fill:none" points="
  1297.64,1425.62 1297.64,121.675 
  "/>
<polyline clip-path="url(#clip1002)" style="stroke:#000000; stroke-width:2; stroke-opacity:0.1; fill:none" points="
  1795.33,1425.62 1795.33,121.675 
  "/>
<polyline clip-path="url(#clip1002)" style="stroke:#000000; stroke-width:2; stroke-opacity:0.1; fill:none" points="
  2293.03,1425.62 2293.03,121.675 
  "/>
<polyline clip-path="url(#clip1002)" style="stroke:#000000; stroke-width:2; stroke-opacity:0.1; fill:none" points="
  242.516,1388.71 2352.76,1388.71 
  "/>
<polyline clip-path="url(#clip1002)" style="stroke:#000000; stroke-width:2; stroke-opacity:0.1; fill:none" points="
  242.516,1116.54 2352.76,1116.54 
  "/>
<polyline clip-path="url(#clip1002)" style="stroke:#000000; stroke-width:2; stroke-opacity:0.1; fill:none" points="
  242.516,844.36 2352.76,844.36 
  "/>
<polyline clip-path="url(#clip1002)" style="stroke:#000000; stroke-width:2; stroke-opacity:0.1; fill:none" points="
  242.516,572.183 2352.76,572.183 
  "/>
<polyline clip-path="url(#clip1002)" style="stroke:#000000; stroke-width:2; stroke-opacity:0.1; fill:none" points="
  242.516,300.006 2352.76,300.006 
  "/>
<polyline clip-path="url(#clip1000)" style="stroke:#000000; stroke-width:4; stroke-opacity:1; fill:none" points="
  242.516,1425.62 2352.76,1425.62 
  "/>
<polyline clip-path="url(#clip1000)" style="stroke:#000000; stroke-width:4; stroke-opacity:1; fill:none" points="
  242.516,1425.62 242.516,121.675 
  "/>
<polyline clip-path="url(#clip1000)" style="stroke:#000000; stroke-width:4; stroke-opacity:1; fill:none" points="
  302.24,1425.62 302.24,1406.06 
  "/>
<polyline clip-path="url(#clip1000)" style="stroke:#000000; stroke-width:4; stroke-opacity:1; fill:none" points="
  799.938,1425.62 799.938,1406.06 
  "/>
<polyline clip-path="url(#clip1000)" style="stroke:#000000; stroke-width:4; stroke-opacity:1; fill:none" points="
  1297.64,1425.62 1297.64,1406.06 
  "/>
<polyline clip-path="url(#clip1000)" style="stroke:#000000; stroke-width:4; stroke-opacity:1; fill:none" points="
  1795.33,1425.62 1795.33,1406.06 
  "/>
<polyline clip-path="url(#clip1000)" style="stroke:#000000; stroke-width:4; stroke-opacity:1; fill:none" points="
  2293.03,1425.62 2293.03,1406.06 
  "/>
<polyline clip-path="url(#clip1000)" style="stroke:#000000; stroke-width:4; stroke-opacity:1; fill:none" points="
  242.516,1388.71 274.17,1388.71 
  "/>
<polyline clip-path="url(#clip1000)" style="stroke:#000000; stroke-width:4; stroke-opacity:1; fill:none" points="
  242.516,1116.54 274.17,1116.54 
  "/>
<polyline clip-path="url(#clip1000)" style="stroke:#000000; stroke-width:4; stroke-opacity:1; fill:none" points="
  242.516,844.36 274.17,844.36 
  "/>
<polyline clip-path="url(#clip1000)" style="stroke:#000000; stroke-width:4; stroke-opacity:1; fill:none" points="
  242.516,572.183 274.17,572.183 
  "/>
<polyline clip-path="url(#clip1000)" style="stroke:#000000; stroke-width:4; stroke-opacity:1; fill:none" points="
  242.516,300.006 274.17,300.006 
  "/>
<g clip-path="url(#clip1000)">
<text style="fill:#000000; fill-opacity:1; font-family:Arial,Helvetica Neue,Helvetica,sans-serif; font-size:48px; text-anchor:middle;" transform="rotate(0, 302.24, 1479.62)" x="302.24" y="1479.62">0</text>
</g>
<g clip-path="url(#clip1000)">
<text style="fill:#000000; fill-opacity:1; font-family:Arial,Helvetica Neue,Helvetica,sans-serif; font-size:48px; text-anchor:middle;" transform="rotate(0, 799.938, 1479.62)" x="799.938" y="1479.62">50</text>
</g>
<g clip-path="url(#clip1000)">
<text style="fill:#000000; fill-opacity:1; font-family:Arial,Helvetica Neue,Helvetica,sans-serif; font-size:48px; text-anchor:middle;" transform="rotate(0, 1297.64, 1479.62)" x="1297.64" y="1479.62">100</text>
</g>
<g clip-path="url(#clip1000)">
<text style="fill:#000000; fill-opacity:1; font-family:Arial,Helvetica Neue,Helvetica,sans-serif; font-size:48px; text-anchor:middle;" transform="rotate(0, 1795.33, 1479.62)" x="1795.33" y="1479.62">150</text>
</g>
<g clip-path="url(#clip1000)">
<text style="fill:#000000; fill-opacity:1; font-family:Arial,Helvetica Neue,Helvetica,sans-serif; font-size:48px; text-anchor:middle;" transform="rotate(0, 2293.03, 1479.62)" x="2293.03" y="1479.62">200</text>
</g>
<g clip-path="url(#clip1000)">
<text style="fill:#000000; fill-opacity:1; font-family:Arial,Helvetica Neue,Helvetica,sans-serif; font-size:48px; text-anchor:end;" transform="rotate(0, 218.516, 1406.21)" x="218.516" y="1406.21">0.0</text>
</g>
<g clip-path="url(#clip1000)">
<text style="fill:#000000; fill-opacity:1; font-family:Arial,Helvetica Neue,Helvetica,sans-serif; font-size:48px; text-anchor:end;" transform="rotate(0, 218.516, 1134.04)" x="218.516" y="1134.04">2.5</text>
</g>
<g clip-path="url(#clip1000)">
<text style="fill:#000000; fill-opacity:1; font-family:Arial,Helvetica Neue,Helvetica,sans-serif; font-size:48px; text-anchor:end;" transform="rotate(0, 218.516, 861.86)" x="218.516" y="861.86">5.0</text>
</g>
<g clip-path="url(#clip1000)">
<text style="fill:#000000; fill-opacity:1; font-family:Arial,Helvetica Neue,Helvetica,sans-serif; font-size:48px; text-anchor:end;" transform="rotate(0, 218.516, 589.683)" x="218.516" y="589.683">7.5</text>
</g>
<g clip-path="url(#clip1000)">
<text style="fill:#000000; fill-opacity:1; font-family:Arial,Helvetica Neue,Helvetica,sans-serif; font-size:48px; text-anchor:end;" transform="rotate(0, 218.516, 317.506)" x="218.516" y="317.506">10.0</text>
</g>
<g clip-path="url(#clip1000)">
<text style="fill:#000000; fill-opacity:1; font-family:Arial,Helvetica Neue,Helvetica,sans-serif; font-size:84px; text-anchor:middle;" transform="rotate(0, 1297.64, 73.2)" x="1297.64" y="73.2">Distribucion sobre x</text>
</g>
<g clip-path="url(#clip1000)">
<text style="fill:#000000; fill-opacity:1; font-family:Arial,Helvetica Neue,Helvetica,sans-serif; font-size:66px; text-anchor:middle;" transform="rotate(0, 1297.64, 1559.48)" x="1297.64" y="1559.48">t</text>
</g>
<g clip-path="url(#clip1000)">
<text style="fill:#000000; fill-opacity:1; font-family:Arial,Helvetica Neue,Helvetica,sans-serif; font-size:66px; text-anchor:middle;" transform="rotate(-90, 89.2861, 773.647)" x="89.2861" y="773.647">u( i ; t)</text>
</g>
<polyline clip-path="url(#clip1002)" style="stroke:#009af9; stroke-width:4; stroke-opacity:1; fill:none" points="
  302.24,1388.71 312.194,1362.18 322.148,1336.44 332.102,1310.99 342.056,1286.8 352.01,1264.24 361.964,1243.65 371.918,1225.32 381.872,1209.2 391.826,1195.63 
  401.78,1184.73 411.734,1176.6 421.688,1150.38 431.642,1148.1 441.596,1149.02 451.55,1153 461.504,1159.85 471.458,1169.34 481.411,1181.18 491.365,1195.05 
  501.319,1210.56 511.273,1226.69 521.227,1243.67 531.181,1250.56 541.135,1256.5 551.089,1260.45 561.043,1263.01 570.997,1264.24 580.951,1264.13 590.905,1262.63 
  600.859,1263.5 610.813,1258.86 620.767,1251.93 630.721,1243.75 640.675,1231.99 650.629,1217.92 660.583,1191.34 670.537,1155.57 680.491,1120.37 690.445,1086.2 
  700.399,1053.45 710.353,1022.4 720.306,993.299 730.26,941.895 740.214,917.567 750.168,895.591 760.122,821.889 770.076,806.28 780.03,794.202 789.984,785.604 
  799.938,771.581 809.892,759.336 819.846,746.741 829.8,734.937 839.754,723.886 849.708,713.712 859.662,704.1 869.616,695.233 879.57,687.172 889.524,680.02 
  899.478,673.942 909.432,668.823 919.386,665.676 929.34,664.525 939.294,655.445 949.248,644.187 959.202,632.349 969.155,654.305 979.109,640.012 989.063,624.599 
  999.017,608.039 1008.97,590.304 1018.93,571.375 1028.88,551.252 1038.83,529.978 1048.79,507.669 1058.74,484.545 1068.7,477.29 1078.65,452.348 1088.6,428.185 
  1098.56,406.914 1108.51,388.546 1118.46,377.546 1128.42,363.728 1138.37,423.237 1148.33,415.664 1158.28,408.947 1168.23,344.718 1178.19,357.923 1188.14,347.539 
  1198.1,339.604 1208.05,324.65 1218,295.377 1227.96,297.073 1237.91,238.021 1247.87,244.743 1257.82,158.579 1267.77,179.235 1277.73,194.362 1287.68,212.55 
  1297.64,233.698 1307.59,257.733 1317.54,284.6 1327.5,313.636 1337.45,345.429 1347.41,380.017 1357.36,417.429 1367.31,452.061 1377.27,494.902 1387.22,540.547 
  1397.18,589.131 1407.13,640.804 1417.08,695.698 1427.04,753.879 1436.99,865.157 1446.95,890.97 1456.9,912.056 1466.85,930.523 1476.81,946.953 1486.76,961.73 
  1496.72,975.084 1506.67,987.108 1516.62,997.765 1526.58,1006.87 1536.53,958.849 1546.49,964.968 1556.44,969.433 1566.39,957.98 1576.35,946.509 1586.3,939.098 
  1596.25,935.534 1606.21,935.679 1616.16,939.435 1626.12,946.765 1636.07,957.713 1646.02,972.409 1655.98,991.065 1665.93,984.938 1675.89,1011.59 1685.84,1021.15 
  1695.79,1033.2 1705.75,1040.21 1715.7,1046.72 1725.66,1052.98 1735.61,1059.08 1745.56,1065.08 1755.52,1070.93 1765.47,1076.54 1775.43,1088.47 1785.38,1092.92 
  1795.33,1084.24 1805.29,1073.57 1815.24,1039.69 1825.2,1007.92 1835.15,977.984 1845.1,949.604 1855.06,922.566 1865.01,896.806 1874.97,861.572 1884.92,837.527 
  1894.87,808.126 1904.83,779.115 1914.78,749.792 1924.74,708.114 1934.69,669.775 1944.64,634.819 1954.6,603.29 1964.55,575.233 1974.51,519.839 1984.46,496.438 
  1994.41,476.562 2004.37,460.176 2014.32,445.747 2024.28,436.585 2034.23,429.64 2044.18,426.311 2054.14,488.729 2064.09,492.705 2074.05,500.448 2084,511.904 
  2093.95,527.134 2103.91,541.151 2113.86,562.331 2123.81,586.646 2133.77,607.927 2143.72,631.582 2153.68,638.641 2163.63,666.686 2173.58,697.646 2183.54,731.133 
  2193.49,769.584 2203.45,814.09 2213.4,855.949 2223.35,886.429 2233.31,929.998 2243.26,987.477 2253.22,1052.19 2263.17,1097.37 2273.12,1109.86 2283.08,1179.58 
  2293.03,1388.71 
  "/>
<polyline clip-path="url(#clip1002)" style="stroke:#e26f46; stroke-width:4; stroke-opacity:1; fill:none" points="
  302.24,1388.71 312.194,1367.35 322.148,1346.55 332.102,1326.03 342.056,1306.42 352.01,1287.99 361.964,1270.97 371.918,1255.59 381.872,1241.81 391.826,1229.87 
  401.78,1219.86 411.734,1211.84 421.688,1190.84 431.642,1186.8 441.596,1185.83 451.55,1187.84 461.504,1192.68 471.458,1200.17 481.411,1210.05 491.365,1222.02 
  501.319,1235.74 511.273,1250.45 521.227,1266.26 531.181,1273.36 541.135,1279.6 551.089,1284.46 561.043,1288.33 570.997,1291.28 580.951,1293.33 590.905,1294.44 
  600.859,1297.12 610.813,1295.96 620.767,1293.34 630.721,1289.77 640.675,1283.89 650.629,1276.27 660.583,1259.85 670.537,1237.04 680.491,1214.08 690.445,1191.2 
  700.399,1168.57 710.353,1146.29 720.306,1124.44 730.26,1089.53 740.214,1068.46 750.168,1048.32 760.122,991.831 770.076,973.901 780.03,959.345 789.984,948.219 
  799.938,934.134 809.892,922.05 819.846,910.688 829.8,900.758 839.754,892.233 849.708,885.125 859.662,879.356 869.616,874.984 879.57,872.06 889.524,870.672 
  899.478,870.961 909.432,873.058 919.386,877.408 929.34,884.327 939.294,885.388 949.248,885.931 959.202,886.456 969.155,902.559 979.109,901.406 989.063,899.721 
  999.017,897.592 1008.97,895.095 1018.93,892.314 1028.88,889.348 1038.83,886.327 1048.79,883.426 1058.74,880.889 1068.7,896.932 1078.65,890.764 1088.6,885.404 
  1098.56,881.328 1108.51,878.569 1118.46,878.228 1128.42,877.589 1138.37,905.754 1148.33,904.48 1158.28,902.436 1168.23,871.471 1178.19,877.063 1188.14,869.851 
  1198.1,862.588 1208.05,852.062 1218,832.816 1227.96,824.563 1237.91,788.345 1247.87,778.804 1257.82,715.147 1267.77,708.78 1277.73,703.133 1287.68,700.858 
  1297.64,701.876 1307.59,706.113 1317.54,713.509 1327.5,723.85 1337.45,737.282 1347.41,753.825 1357.36,773.516 1367.31,794.013 1377.27,820.059 1387.22,849.563 
  1397.18,882.659 1407.13,919.477 1417.08,960.095 1427.04,1004.5 1436.99,1076.74 1446.95,1094.52 1456.9,1108.28 1466.85,1119.48 1476.81,1128.63 1486.76,1136.05 
  1496.72,1141.91 1506.67,1146.27 1516.62,1149.02 1526.58,1149.92 1536.53,1110.13 1546.49,1106.57 1556.44,1102.56 1566.39,1086.02 1576.35,1070.99 1586.3,1059.93 
  1596.25,1052.52 1606.21,1048.52 1616.16,1047.73 1626.12,1050.03 1636.07,1055.37 1646.02,1063.82 1655.98,1075.5 1665.93,1069.3 1675.89,1087.09 1685.84,1091.26 
  1695.79,1096.58 1705.75,1099.39 1715.7,1102.15 1725.66,1105.05 1735.61,1108.17 1745.56,1111.55 1755.52,1115.15 1765.47,1118.88 1775.43,1125.64 1785.38,1128.75 
  1795.33,1121.77 1805.29,1112.36 1815.24,1082.78 1825.2,1055.44 1835.15,1030 1845.1,1006.12 1855.06,983.529 1865.01,962.017 1874.97,935.158 1884.92,913.944 
  1894.87,891.246 1904.83,868.757 1914.78,845.863 1924.74,812.174 1934.69,781.248 1944.64,753.088 1954.6,727.693 1964.55,705.053 1974.51,668.911 1984.46,650.527 
  1994.41,635.674 2004.37,624.343 2014.32,615.892 2024.28,611.814 2034.23,610.434 2044.18,612.533 2054.14,653.649 2064.09,658.662 2074.05,665.664 2084,674.688 
  2093.95,685.842 2103.91,697.807 2113.86,712.834 2123.81,729.472 2133.77,745.141 2143.72,762.681 2153.68,770.745 2163.63,791.73 2173.58,814.68 2183.54,839.385 
  2193.49,868.343 2203.45,902.682 2213.4,935.22 2223.35,959.212 2233.31,991.906 2243.26,1038.73 2253.22,1092.98 2263.17,1127.84 2273.12,1130.11 2283.08,1189.7 
  2293.03,1388.71 
  "/>
<polyline clip-path="url(#clip1002)" style="stroke:#3da44d; stroke-width:4; stroke-opacity:1; fill:none" points="
  302.24,1388.71 312.194,1370.37 322.148,1352.48 332.102,1334.84 342.056,1317.92 352.01,1301.93 361.964,1287.06 371.918,1273.48 381.872,1261.14 391.826,1250.25 
  401.78,1240.86 411.734,1232.99 421.688,1215.24 431.642,1210.19 441.596,1208.06 451.55,1208.81 461.504,1212.34 471.458,1218.49 481.411,1227.02 491.365,1237.67 
  501.319,1250.11 511.273,1263.68 521.227,1278.44 531.181,1285.39 541.135,1291.57 551.089,1296.67 561.043,1300.98 570.997,1304.57 580.951,1307.46 590.905,1309.65 
  600.859,1312.89 610.813,1313.14 620.767,1312.29 630.721,1310.64 640.675,1307.23 650.629,1302.39 660.583,1290.54 670.537,1273.79 680.491,1256.58 690.445,1239.04 
  700.399,1221.23 710.353,1203.17 720.306,1184.82 730.26,1156.9 740.214,1137.37 750.168,1118 760.122,1070.35 770.076,1050.54 780.03,1033.87 789.984,1020.46 
  799.938,1005.17 809.892,991.92 819.846,979.832 829.8,969.428 839.754,960.693 849.708,953.628 859.662,948.196 869.616,944.432 879.57,942.381 889.524,942.12 
  899.478,943.778 909.432,947.513 919.386,953.655 929.34,962.548 939.294,966.413 949.248,970.261 959.202,974.425 969.155,988.271 979.109,991.097 989.063,993.69 
  999.017,996.192 1008.97,998.729 1018.93,1001.42 1028.88,1004.4 1038.83,1007.81 1048.79,1011.82 1058.74,1016.64 1068.7,1036.82 1078.65,1037.09 1088.6,1037.69 
  1098.56,1038.86 1108.51,1040.67 1118.46,1043.57 1128.42,1046.4 1138.37,1064.7 1148.33,1064.96 1158.28,1064.01 1168.23,1044.99 1178.19,1047.42 1188.14,1041.59 
  1198.1,1035.03 1208.05,1025.99 1218,1010.43 1227.96,1000.03 1237.91,971.899 1247.87,958.085 1257.82,905.169 1267.77,890.684 1277.73,878.344 1287.68,869.465 
  1297.64,864.003 1307.59,861.902 1317.54,863.111 1327.5,867.514 1337.45,875.165 1347.41,886.081 1357.36,900.306 1367.31,916.462 1377.27,937.446 1387.22,962.15 
  1397.18,990.706 1407.13,1023.22 1417.08,1059.73 1427.04,1100.16 1436.99,1156.86 1446.95,1172.2 1456.9,1183.7 1466.85,1192.61 1476.81,1199.43 1486.76,1204.47 
  1496.72,1207.87 1506.67,1209.67 1516.62,1209.71 1526.58,1207.67 1536.53,1173.11 1546.49,1165.31 1556.44,1157.63 1566.39,1139.33 1576.35,1123.31 1586.3,1111.19 
  1596.25,1102.62 1606.21,1097.3 1616.16,1094.98 1626.12,1095.46 1636.07,1098.67 1646.02,1104.6 1655.98,1113.31 1665.93,1107.94 1675.89,1121.47 1685.84,1122.91 
  1695.79,1125.02 1705.75,1125.64 1715.7,1126.42 1725.66,1127.51 1735.61,1128.99 1745.56,1130.87 1755.52,1133.12 1765.47,1135.68 1775.43,1140.17 1785.38,1142.36 
  1795.33,1135.85 1805.29,1126.79 1815.24,1098.93 1825.2,1073.37 1835.15,1049.74 1845.1,1027.69 1855.06,1006.9 1865.01,987.127 1874.97,963.8 1884.92,944.349 
  1894.87,924.336 1904.83,904.52 1914.78,884.335 1924.74,854.19 1934.69,826.631 1944.64,801.642 1954.6,779.205 1964.55,759.282 1974.51,730.989 1984.46,715.039 
  1994.41,702.639 2004.37,693.793 2014.32,688.113 2024.28,686.475 2034.23,687.785 2044.18,692.561 2054.14,724.55 2064.09,730.15 2074.05,736.954 2084,745.058 
  2093.95,754.6 2103.91,765.15 2113.86,777.405 2123.81,791.245 2133.77,804.625 2143.72,819.597 2153.68,828.352 2163.63,846.294 2173.58,865.794 2183.54,886.717 
  2193.49,911.58 2203.45,941.519 2213.4,970.052 2223.35,991.141 2233.31,1019.07 2243.26,1061.23 2253.22,1110.88 2263.17,1141.22 2273.12,1139 2283.08,1194.15 
  2293.03,1388.71 
  "/>
<polyline clip-path="url(#clip1002)" style="stroke:#c271d2; stroke-width:4; stroke-opacity:1; fill:none" points="
  302.24,1388.71 312.194,1373.69 322.148,1359 332.102,1344.54 342.056,1330.61 352.01,1317.35 361.964,1304.91 371.918,1293.4 381.872,1282.8 391.826,1273.23 
  401.78,1264.71 411.734,1257.22 421.688,1243.39 431.642,1237.31 441.596,1233.93 451.55,1233.26 461.504,1235.25 471.458,1239.78 481.411,1246.66 491.365,1255.64 
  501.319,1266.43 511.273,1278.49 521.227,1291.79 531.181,1298.41 541.135,1304.37 551.089,1309.55 561.043,1314.15 570.997,1318.24 580.951,1321.83 590.905,1324.93 
  600.859,1328.5 610.813,1329.98 620.767,1330.65 630.721,1330.7 640.675,1329.48 650.629,1327.16 660.583,1319.64 670.537,1308.72 680.491,1297.14 690.445,1284.91 
  700.399,1272.02 710.353,1258.38 720.306,1243.84 730.26,1222.84 740.214,1205.32 750.168,1187.15 760.122,1149.57 770.076,1127.77 780.03,1108.67 789.984,1092.51 
  799.938,1075.47 809.892,1060.4 819.846,1046.87 829.8,1035.24 839.754,1025.5 849.708,1017.67 859.662,1011.74 869.616,1007.73 879.57,1005.69 889.524,1005.69 
  899.478,1007.83 909.432,1012.27 919.386,1019.29 929.34,1029.2 939.294,1034.88 949.248,1040.95 959.202,1047.68 969.155,1059.46 979.109,1065.19 989.063,1071 
  999.017,1077.11 1008.97,1083.68 1018.93,1090.85 1028.88,1098.77 1038.83,1107.56 1048.79,1117.35 1058.74,1128.27 1068.7,1148.54 1078.65,1153.63 1088.6,1158.42 
  1098.56,1163.13 1108.51,1167.89 1118.46,1172.84 1128.42,1177.66 1138.37,1188.57 1148.33,1189.61 1158.28,1189.21 1168.23,1179.69 1178.19,1179.43 1188.14,1174.87 
  1198.1,1169.27 1208.05,1161.75 1218,1149.71 1227.96,1138.74 1237.91,1117.56 1247.87,1101.56 1257.82,1060.28 1267.77,1039.91 1277.73,1022.4 1287.68,1008.36 
  1297.64,997.814 1307.59,990.755 1317.54,987.161 1327.5,986.984 1337.45,990.24 1347.41,996.95 1357.36,1007.17 1367.31,1020.23 1377.27,1037.67 1387.22,1059.09 
  1397.18,1084.63 1407.13,1114.32 1417.08,1148.12 1427.04,1185.82 1436.99,1227.56 1446.95,1240.91 1456.9,1250.54 1466.85,1257.59 1476.81,1262.58 1486.76,1265.8 
  1496.72,1267.38 1506.67,1267.27 1516.62,1265.29 1526.58,1260.99 1536.53,1233.25 1546.49,1221.18 1556.44,1209.76 1566.39,1189.9 1576.35,1173.11 1586.3,1160.18 
  1596.25,1150.72 1606.21,1144.36 1616.16,1140.79 1626.12,1139.77 1636.07,1141.14 1646.02,1144.82 1655.98,1150.75 1665.93,1146.95 1675.89,1155.98 1685.84,1154.46 
  1695.79,1153.31 1705.75,1151.58 1715.7,1150.22 1725.66,1149.34 1735.61,1149 1745.56,1149.22 1755.52,1149.96 1765.47,1151.15 1775.43,1153.44 1785.38,1154.55 
  1795.33,1148.35 1805.29,1139.53 1815.24,1113.23 1825.2,1089.31 1835.15,1067.38 1845.1,1047.03 1855.06,1027.91 1865.01,1009.74 1874.97,989.656 1884.92,972.044 
  1894.87,954.456 1904.83,937.084 1914.78,919.414 1924.74,892.662 1934.69,868.362 1944.64,846.486 1954.6,826.998 1964.55,809.827 1974.51,788.702 1984.46,775.189 
  1994.41,765.254 2004.37,758.906 2014.32,755.943 2024.28,756.764 2034.23,760.777 2044.18,768.272 2054.14,791.415 2064.09,797.509 2074.05,804.061 2084,811.265 
  2093.95,819.301 2103.91,828.225 2113.86,837.907 2123.81,849.361 2133.77,860.648 2143.72,873.204 2153.68,882.547 2163.63,897.569 2173.58,913.814 2183.54,931.2 
  2193.49,952.254 2203.45,978.105 2213.4,1002.92 2223.35,1021.26 2233.31,1044.7 2243.26,1082.45 2253.22,1127.77 2263.17,1153.84 2273.12,1147.39 2283.08,1198.34 
  2293.03,1388.71 
  "/>
<polygon clip-path="url(#clip1000)" points="
1973.85,507.595 2280.76,507.595 2280.76,205.195 1973.85,205.195 
  " fill="#ffffff" fill-rule="evenodd" fill-opacity="1"/>
<polyline clip-path="url(#clip1000)" style="stroke:#000000; stroke-width:4; stroke-opacity:1; fill:none" points="
  1973.85,507.595 2280.76,507.595 2280.76,205.195 1973.85,205.195 1973.85,507.595 
  "/>
<polyline clip-path="url(#clip1000)" style="stroke:#009af9; stroke-width:4; stroke-opacity:1; fill:none" points="
  1997.85,265.675 2141.85,265.675 
  "/>
<g clip-path="url(#clip1000)">
<text style="fill:#000000; fill-opacity:1; font-family:Arial,Helvetica Neue,Helvetica,sans-serif; font-size:48px; text-anchor:start;" transform="rotate(0, 2165.85, 283.175)" x="2165.85" y="283.175">1.0</text>
</g>
<polyline clip-path="url(#clip1000)" style="stroke:#e26f46; stroke-width:4; stroke-opacity:1; fill:none" points="
  1997.85,326.155 2141.85,326.155 
  "/>
<g clip-path="url(#clip1000)">
<text style="fill:#000000; fill-opacity:1; font-family:Arial,Helvetica Neue,Helvetica,sans-serif; font-size:48px; text-anchor:start;" transform="rotate(0, 2165.85, 343.655)" x="2165.85" y="343.655">0.9</text>
</g>
<polyline clip-path="url(#clip1000)" style="stroke:#3da44d; stroke-width:4; stroke-opacity:1; fill:none" points="
  1997.85,386.635 2141.85,386.635 
  "/>
<g clip-path="url(#clip1000)">
<text style="fill:#000000; fill-opacity:1; font-family:Arial,Helvetica Neue,Helvetica,sans-serif; font-size:48px; text-anchor:start;" transform="rotate(0, 2165.85, 404.135)" x="2165.85" y="404.135">0.8</text>
</g>
<polyline clip-path="url(#clip1000)" style="stroke:#c271d2; stroke-width:4; stroke-opacity:1; fill:none" points="
  1997.85,447.115 2141.85,447.115 
  "/>
<g clip-path="url(#clip1000)">
<text style="fill:#000000; fill-opacity:1; font-family:Arial,Helvetica Neue,Helvetica,sans-serif; font-size:48px; text-anchor:start;" transform="rotate(0, 2165.85, 464.615)" x="2165.85" y="464.615">0.6</text>
</g>
</svg>
