<?xml version="1.0" encoding="utf-8"?>
<svg xmlns="http://www.w3.org/2000/svg" xmlns:xlink="http://www.w3.org/1999/xlink" width="600" height="400" viewBox="0 0 2400 1600">
<defs>
  <clipPath id="clip1400">
    <rect x="0" y="0" width="2400" height="1600"/>
  </clipPath>
</defs>
<polygon clip-path="url(#clip1400)" points="
0,1600 2400,1600 2400,0 0,0 
  " fill="#ffffff" fill-rule="evenodd" fill-opacity="1"/>
<defs>
  <clipPath id="clip1401">
    <rect x="480" y="0" width="1681" height="1600"/>
  </clipPath>
</defs>
<polygon clip-path="url(#clip1400)" points="
242.516,1425.62 2352.76,1425.62 2352.76,121.675 242.516,121.675 
  " fill="#ffffff" fill-rule="evenodd" fill-opacity="1"/>
<defs>
  <clipPath id="clip1402">
    <rect x="242" y="121" width="2111" height="1305"/>
  </clipPath>
</defs>
<polyline clip-path="url(#clip1402)" style="stroke:#000000; stroke-width:2; stroke-opacity:0.1; fill:none" points="
  302.24,1425.62 302.24,121.675 
  "/>
<polyline clip-path="url(#clip1402)" style="stroke:#000000; stroke-width:2; stroke-opacity:0.1; fill:none" points="
  799.938,1425.62 799.938,121.675 
  "/>
<polyline clip-path="url(#clip1402)" style="stroke:#000000; stroke-width:2; stroke-opacity:0.1; fill:none" points="
  1297.64,1425.62 1297.64,121.675 
  "/>
<polyline clip-path="url(#clip1402)" style="stroke:#000000; stroke-width:2; stroke-opacity:0.1; fill:none" points="
  1795.33,1425.62 1795.33,121.675 
  "/>
<polyline clip-path="url(#clip1402)" style="stroke:#000000; stroke-width:2; stroke-opacity:0.1; fill:none" points="
  2293.03,1425.62 2293.03,121.675 
  "/>
<polyline clip-path="url(#clip1402)" style="stroke:#000000; stroke-width:2; stroke-opacity:0.1; fill:none" points="
  242.516,1388.71 2352.76,1388.71 
  "/>
<polyline clip-path="url(#clip1402)" style="stroke:#000000; stroke-width:2; stroke-opacity:0.1; fill:none" points="
  242.516,1069.17 2352.76,1069.17 
  "/>
<polyline clip-path="url(#clip1402)" style="stroke:#000000; stroke-width:2; stroke-opacity:0.1; fill:none" points="
  242.516,749.616 2352.76,749.616 
  "/>
<polyline clip-path="url(#clip1402)" style="stroke:#000000; stroke-width:2; stroke-opacity:0.1; fill:none" points="
  242.516,430.067 2352.76,430.067 
  "/>
<polyline clip-path="url(#clip1400)" style="stroke:#000000; stroke-width:4; stroke-opacity:1; fill:none" points="
  242.516,1425.62 2352.76,1425.62 
  "/>
<polyline clip-path="url(#clip1400)" style="stroke:#000000; stroke-width:4; stroke-opacity:1; fill:none" points="
  242.516,1425.62 242.516,121.675 
  "/>
<polyline clip-path="url(#clip1400)" style="stroke:#000000; stroke-width:4; stroke-opacity:1; fill:none" points="
  302.24,1425.62 302.24,1406.06 
  "/>
<polyline clip-path="url(#clip1400)" style="stroke:#000000; stroke-width:4; stroke-opacity:1; fill:none" points="
  799.938,1425.62 799.938,1406.06 
  "/>
<polyline clip-path="url(#clip1400)" style="stroke:#000000; stroke-width:4; stroke-opacity:1; fill:none" points="
  1297.64,1425.62 1297.64,1406.06 
  "/>
<polyline clip-path="url(#clip1400)" style="stroke:#000000; stroke-width:4; stroke-opacity:1; fill:none" points="
  1795.33,1425.62 1795.33,1406.06 
  "/>
<polyline clip-path="url(#clip1400)" style="stroke:#000000; stroke-width:4; stroke-opacity:1; fill:none" points="
  2293.03,1425.62 2293.03,1406.06 
  "/>
<polyline clip-path="url(#clip1400)" style="stroke:#000000; stroke-width:4; stroke-opacity:1; fill:none" points="
  242.516,1388.71 274.17,1388.71 
  "/>
<polyline clip-path="url(#clip1400)" style="stroke:#000000; stroke-width:4; stroke-opacity:1; fill:none" points="
  242.516,1069.17 274.17,1069.17 
  "/>
<polyline clip-path="url(#clip1400)" style="stroke:#000000; stroke-width:4; stroke-opacity:1; fill:none" points="
  242.516,749.616 274.17,749.616 
  "/>
<polyline clip-path="url(#clip1400)" style="stroke:#000000; stroke-width:4; stroke-opacity:1; fill:none" points="
  242.516,430.067 274.17,430.067 
  "/>
<g clip-path="url(#clip1400)">
<text style="fill:#000000; fill-opacity:1; font-family:Arial,Helvetica Neue,Helvetica,sans-serif; font-size:48px; text-anchor:middle;" transform="rotate(0, 302.24, 1479.62)" x="302.24" y="1479.62">-40</text>
</g>
<g clip-path="url(#clip1400)">
<text style="fill:#000000; fill-opacity:1; font-family:Arial,Helvetica Neue,Helvetica,sans-serif; font-size:48px; text-anchor:middle;" transform="rotate(0, 799.938, 1479.62)" x="799.938" y="1479.62">-20</text>
</g>
<g clip-path="url(#clip1400)">
<text style="fill:#000000; fill-opacity:1; font-family:Arial,Helvetica Neue,Helvetica,sans-serif; font-size:48px; text-anchor:middle;" transform="rotate(0, 1297.64, 1479.62)" x="1297.64" y="1479.62">0</text>
</g>
<g clip-path="url(#clip1400)">
<text style="fill:#000000; fill-opacity:1; font-family:Arial,Helvetica Neue,Helvetica,sans-serif; font-size:48px; text-anchor:middle;" transform="rotate(0, 1795.33, 1479.62)" x="1795.33" y="1479.62">20</text>
</g>
<g clip-path="url(#clip1400)">
<text style="fill:#000000; fill-opacity:1; font-family:Arial,Helvetica Neue,Helvetica,sans-serif; font-size:48px; text-anchor:middle;" transform="rotate(0, 2293.03, 1479.62)" x="2293.03" y="1479.62">40</text>
</g>
<g clip-path="url(#clip1400)">
<text style="fill:#000000; fill-opacity:1; font-family:Arial,Helvetica Neue,Helvetica,sans-serif; font-size:48px; text-anchor:end;" transform="rotate(0, 218.516, 1406.21)" x="218.516" y="1406.21">0.00</text>
</g>
<g clip-path="url(#clip1400)">
<text style="fill:#000000; fill-opacity:1; font-family:Arial,Helvetica Neue,Helvetica,sans-serif; font-size:48px; text-anchor:end;" transform="rotate(0, 218.516, 1086.67)" x="218.516" y="1086.67">0.05</text>
</g>
<g clip-path="url(#clip1400)">
<text style="fill:#000000; fill-opacity:1; font-family:Arial,Helvetica Neue,Helvetica,sans-serif; font-size:48px; text-anchor:end;" transform="rotate(0, 218.516, 767.116)" x="218.516" y="767.116">0.10</text>
</g>
<g clip-path="url(#clip1400)">
<text style="fill:#000000; fill-opacity:1; font-family:Arial,Helvetica Neue,Helvetica,sans-serif; font-size:48px; text-anchor:end;" transform="rotate(0, 218.516, 447.567)" x="218.516" y="447.567">0.15</text>
</g>
<g clip-path="url(#clip1400)">
<text style="fill:#000000; fill-opacity:1; font-family:Arial,Helvetica Neue,Helvetica,sans-serif; font-size:84px; text-anchor:middle;" transform="rotate(0, 1297.64, 73.2)" x="1297.64" y="73.2">Distribucion sobre y</text>
</g>
<g clip-path="url(#clip1400)">
<text style="fill:#000000; fill-opacity:1; font-family:Arial,Helvetica Neue,Helvetica,sans-serif; font-size:66px; text-anchor:middle;" transform="rotate(0, 1297.64, 1559.48)" x="1297.64" y="1559.48">t</text>
</g>
<g clip-path="url(#clip1400)">
<text style="fill:#000000; fill-opacity:1; font-family:Arial,Helvetica Neue,Helvetica,sans-serif; font-size:66px; text-anchor:middle;" transform="rotate(-90, 89.2861, 773.647)" x="89.2861" y="773.647">u( j ; t)</text>
</g>
<polyline clip-path="url(#clip1402)" style="stroke:#009af9; stroke-width:4; stroke-opacity:1; fill:none" points="
  302.24,1388.71 322.148,1376.75 342.056,1364.79 361.964,1352.83 381.872,1340.86 401.78,1328.89 421.688,1316.9 441.596,1304.75 461.504,1292.75 481.411,1281.3 
  501.319,1269.83 521.227,1257.67 541.135,1245.35 561.043,1222.91 580.951,1201.91 600.859,1189.21 620.767,1189.68 640.675,1177.99 660.583,1164.85 680.491,1156.33 
  700.399,1099.33 720.306,1085.3 740.214,1070.58 760.122,1048.91 780.03,1033.86 799.938,1053.04 819.846,1050.47 839.754,1009.96 859.662,993.102 879.57,894 
  899.478,825.596 919.386,807.785 939.294,789.794 959.202,771.598 979.109,753.18 999.017,734.527 1018.93,715.636 1038.83,696.506 1058.74,674.374 1078.65,651.276 
  1098.56,627.099 1118.46,605.734 1138.37,578.532 1158.28,573.322 1178.19,530.145 1198.1,466.085 1218,417.193 1237.91,317.671 1257.82,265.943 1277.73,213.598 
  1297.64,158.579 1317.54,237.537 1337.45,347.696 1357.36,531.734 1377.27,697.336 1397.18,774.402 1417.08,832.633 1436.99,879.305 1456.9,907.83 1476.81,953.882 
  1496.72,997.593 1516.62,1053.32 1536.53,1080.3 1556.44,1106.39 1576.35,1131.91 1596.25,1143.63 1616.16,1161.85 1636.07,1172.96 1655.98,1197.02 1675.89,1206.59 
  1695.79,1215.37 1715.7,1223.62 1735.61,1221.01 1755.52,1258.57 1775.43,1264.62 1795.33,1271.09 1815.24,1277.48 1835.15,1279.95 1855.06,1292.83 1874.97,1298.26 
  1894.87,1303.63 1914.78,1308.97 1934.69,1313.12 1954.6,1324.61 1974.51,1327.38 1994.41,1349.82 2014.32,1353.48 2034.23,1356.45 2054.14,1359.07 2074.05,1359.72 
  2093.95,1363.39 2113.86,1366.55 2133.77,1368.89 2153.68,1371.17 2173.58,1373.33 2193.49,1375.52 2213.4,1380.14 2233.31,1382.28 2253.22,1384.41 2273.12,1386.54 
  2293.03,1388.62 
  "/>
<polyline clip-path="url(#clip1402)" style="stroke:#e26f46; stroke-width:4; stroke-opacity:1; fill:none" points="
  302.24,1388.71 322.148,1383 342.056,1377.28 361.964,1371.56 381.872,1365.84 401.78,1360.12 421.688,1354.39 441.596,1348.61 461.504,1342.87 481.411,1337.26 
  501.319,1331.62 521.227,1325.81 541.135,1319.92 561.043,1310.62 580.951,1302.04 600.859,1295.69 620.767,1293.5 640.675,1287.15 660.583,1280.18 680.491,1275.1 
  700.399,1249.58 720.306,1240.67 740.214,1231.23 760.122,1216.02 780.03,1205.72 799.938,1206.04 819.846,1198.88 839.754,1172.27 859.662,1158.44 879.57,1107.75 
  899.478,1059.73 919.386,1041.08 939.294,1022.28 959.202,1003.34 979.109,984.231 999.017,964.948 1018.93,945.493 1038.83,925.87 1058.74,904.189 1078.65,881.758 
  1098.56,858.452 1118.46,836.367 1138.37,810.242 1158.28,786.799 1178.19,744.17 1198.1,686.866 1218,638.32 1237.91,555.413 1257.82,502.056 1277.73,447.988 
  1297.64,391.738 1317.54,469.128 1337.45,564.257 1357.36,689.747 1377.27,802.482 1397.18,868.8 1417.08,923.089 1436.99,967.151 1456.9,1001.48 1476.81,1041.46 
  1496.72,1079.42 1516.62,1124.7 1536.53,1149.04 1556.44,1172.6 1576.35,1195.65 1596.25,1209.49 1616.16,1226.6 1636.07,1237.26 1655.98,1251.66 1675.89,1260.76 
  1695.79,1269.24 1715.7,1277.27 1735.61,1281.52 1755.52,1306.74 1775.43,1311.95 1795.33,1317.15 1815.24,1322.2 1835.15,1325.03 1855.06,1333.4 1874.97,1337.47 
  1894.87,1341.47 1914.78,1345.43 1934.69,1348.61 1954.6,1353.31 1974.51,1356.4 1994.41,1365.72 2014.32,1367.91 2034.23,1369.85 2054.14,1371.41 2074.05,1372.46 
  2093.95,1374.33 2113.86,1376.1 2133.77,1377.48 2153.68,1378.83 2173.58,1380.15 2193.49,1381.45 2213.4,1383.88 2233.31,1385.09 2253.22,1386.3 2273.12,1387.5 
  2293.03,1388.67 
  "/>
<polyline clip-path="url(#clip1402)" style="stroke:#3da44d; stroke-width:4; stroke-opacity:1; fill:none" points="
  302.24,1388.71 322.148,1384.92 342.056,1381.12 361.964,1377.32 381.872,1373.52 401.78,1369.72 421.688,1365.91 441.596,1362.08 461.504,1358.27 481.411,1354.5 
  501.319,1350.72 521.227,1346.86 541.135,1342.95 561.043,1337.38 580.951,1332.17 600.859,1327.87 620.767,1325.48 640.675,1320.97 660.583,1316.08 680.491,1312.17 
  700.399,1296.35 720.306,1289.35 740.214,1281.91 760.122,1270.26 780.03,1261.83 799.938,1258.17 819.846,1250.6 839.754,1230.28 859.662,1218.01 879.57,1183.59 
  899.478,1145.71 919.386,1127.22 939.294,1108.62 959.202,1089.89 979.109,1071.02 999.017,1052.01 1018.93,1032.85 1038.83,1013.57 1058.74,992.628 1078.65,971.033 
  1098.56,948.659 1118.46,926.699 1138.37,901.61 1158.28,872.346 1178.19,830.657 1198.1,777.763 1218,729.943 1237.91,656.426 1257.82,602.531 1277.73,547.725 
  1297.64,490.851 1317.54,567.297 1337.45,654.715 1357.36,757.404 1377.27,849.566 1397.18,911.224 1417.08,963.917 1436.99,1006.37 1456.9,1041.79 1476.81,1079.29 
  1496.72,1114.91 1516.62,1154.49 1536.53,1177.47 1556.44,1199.69 1576.35,1221.43 1596.25,1235.92 1616.16,1252.31 1636.07,1262.56 1655.98,1274.24 1675.89,1283.06 
  1695.79,1291.34 1715.7,1299.21 1735.61,1304.88 1755.52,1324 1775.43,1328.71 1795.33,1333.28 1815.24,1337.68 1835.15,1340.6 1855.06,1346.91 1874.97,1350.33 
  1894.87,1353.69 1914.78,1357 1934.69,1359.72 1954.6,1362.91 1974.51,1365.65 1994.41,1371.31 2014.32,1373 2034.23,1374.52 2054.14,1375.75 2074.05,1376.75 
  2093.95,1378.11 2113.86,1379.43 2133.77,1380.48 2153.68,1381.52 2173.58,1382.53 2193.49,1383.53 2213.4,1385.15 2233.31,1386.05 2253.22,1386.94 2273.12,1387.82 
  2293.03,1388.69 
  "/>
<polyline clip-path="url(#clip1402)" style="stroke:#c271d2; stroke-width:4; stroke-opacity:1; fill:none" points="
  302.24,1388.71 322.148,1386.33 342.056,1383.94 361.964,1381.55 381.872,1379.17 401.78,1376.78 421.688,1374.39 441.596,1371.99 461.504,1369.59 481.411,1367.2 
  501.319,1364.81 521.227,1362.39 541.135,1359.95 561.043,1356.9 580.951,1353.93 600.859,1351.2 620.767,1349.08 640.675,1346.07 660.583,1342.85 680.491,1339.92 
  700.399,1331.19 720.306,1325.85 740.214,1320.15 760.122,1311.99 780.03,1305.27 799.938,1299.97 819.846,1292.86 839.754,1278.6 859.662,1267.97 879.57,1246.15 
  899.478,1218.59 919.386,1200.64 939.294,1182.6 959.202,1164.44 979.109,1146.17 999.017,1127.8 1018.93,1109.33 1038.83,1090.77 1058.74,1070.91 1078.65,1050.51 
  1098.56,1029.43 1118.46,1008.02 1138.37,984.342 1158.28,951.134 1178.19,910.858 1198.1,862.942 1218,816.203 1237.91,753.161 1257.82,698.844 1277.73,643.189 
  1297.64,585.364 1317.54,660.32 1337.45,739.648 1357.36,822.502 1377.27,896.731 1397.18,953.785 1417.08,1004.61 1436.99,1045.25 1456.9,1080.91 1476.81,1116.11 
  1496.72,1149.59 1516.62,1182.72 1536.53,1204.24 1556.44,1225.01 1576.35,1245.29 1596.25,1260.13 1616.16,1275.69 1636.07,1285.45 1655.98,1295.31 1675.89,1303.83 
  1695.79,1311.88 1715.7,1319.58 1735.61,1326 1755.52,1338.96 1775.43,1343.11 1795.33,1347.03 1815.24,1350.75 1835.15,1353.65 1855.06,1358.01 1874.97,1360.8 
  1894.87,1363.53 1914.78,1366.2 1934.69,1368.46 1954.6,1370.71 1974.51,1372.93 1994.41,1376.04 2014.32,1377.29 2034.23,1378.44 2054.14,1379.4 2074.05,1380.26 
  2093.95,1381.22 2113.86,1382.16 2133.77,1382.95 2153.68,1383.71 2173.58,1384.47 2193.49,1385.21 2213.4,1386.19 2233.31,1386.83 2253.22,1387.46 2273.12,1388.09 
  2293.03,1388.7 
  "/>
<polygon clip-path="url(#clip1400)" points="
1973.85,507.595 2280.76,507.595 2280.76,205.195 1973.85,205.195 
  " fill="#ffffff" fill-rule="evenodd" fill-opacity="1"/>
<polyline clip-path="url(#clip1400)" style="stroke:#000000; stroke-width:4; stroke-opacity:1; fill:none" points="
  1973.85,507.595 2280.76,507.595 2280.76,205.195 1973.85,205.195 1973.85,507.595 
  "/>
<polyline clip-path="url(#clip1400)" style="stroke:#009af9; stroke-width:4; stroke-opacity:1; fill:none" points="
  1997.85,265.675 2141.85,265.675 
  "/>
<g clip-path="url(#clip1400)">
<text style="fill:#000000; fill-opacity:1; font-family:Arial,Helvetica Neue,Helvetica,sans-serif; font-size:48px; text-anchor:start;" transform="rotate(0, 2165.85, 283.175)" x="2165.85" y="283.175">1.0</text>
</g>
<polyline clip-path="url(#clip1400)" style="stroke:#e26f46; stroke-width:4; stroke-opacity:1; fill:none" points="
  1997.85,326.155 2141.85,326.155 
  "/>
<g clip-path="url(#clip1400)">
<text style="fill:#000000; fill-opacity:1; font-family:Arial,Helvetica Neue,Helvetica,sans-serif; font-size:48px; text-anchor:start;" transform="rotate(0, 2165.85, 343.655)" x="2165.85" y="343.655">0.9</text>
</g>
<polyline clip-path="url(#clip1400)" style="stroke:#3da44d; stroke-width:4; stroke-opacity:1; fill:none" points="
  1997.85,386.635 2141.85,386.635 
  "/>
<g clip-path="url(#clip1400)">
<text style="fill:#000000; fill-opacity:1; font-family:Arial,Helvetica Neue,Helvetica,sans-serif; font-size:48px; text-anchor:start;" transform="rotate(0, 2165.85, 404.135)" x="2165.85" y="404.135">0.8</text>
</g>
<polyline clip-path="url(#clip1400)" style="stroke:#c271d2; stroke-width:4; stroke-opacity:1; fill:none" points="
  1997.85,447.115 2141.85,447.115 
  "/>
<g clip-path="url(#clip1400)">
<text style="fill:#000000; fill-opacity:1; font-family:Arial,Helvetica Neue,Helvetica,sans-serif; font-size:48px; text-anchor:start;" transform="rotate(0, 2165.85, 464.615)" x="2165.85" y="464.615">0.6</text>
</g>
</svg>
