<?xml version="1.0" encoding="utf-8"?>
<svg xmlns="http://www.w3.org/2000/svg" xmlns:xlink="http://www.w3.org/1999/xlink" width="600" height="400" viewBox="0 0 2400 1600">
<defs>
  <clipPath id="clip5000">
    <rect x="0" y="0" width="2400" height="1600"/>
  </clipPath>
</defs>
<polygon clip-path="url(#clip5000)" points="
0,1600 2400,1600 2400,0 0,0 
  " fill="#ffffff" fill-rule="evenodd" fill-opacity="1"/>
<defs>
  <clipPath id="clip5001">
    <rect x="480" y="0" width="1681" height="1600"/>
  </clipPath>
</defs>
<polygon clip-path="url(#clip5000)" points="
167.279,1425.62 2352.76,1425.62 2352.76,121.675 167.279,121.675 
  " fill="#ffffff" fill-rule="evenodd" fill-opacity="1"/>
<defs>
  <clipPath id="clip5002">
    <rect x="167" y="121" width="2186" height="1305"/>
  </clipPath>
</defs>
<polyline clip-path="url(#clip5002)" style="stroke:#000000; stroke-width:2; stroke-opacity:0.1; fill:none" points="
  488.698,1425.62 488.698,121.675 
  "/>
<polyline clip-path="url(#clip5002)" style="stroke:#000000; stroke-width:2; stroke-opacity:0.1; fill:none" points="
  891.126,1425.62 891.126,121.675 
  "/>
<polyline clip-path="url(#clip5002)" style="stroke:#000000; stroke-width:2; stroke-opacity:0.1; fill:none" points="
  1293.55,1425.62 1293.55,121.675 
  "/>
<polyline clip-path="url(#clip5002)" style="stroke:#000000; stroke-width:2; stroke-opacity:0.1; fill:none" points="
  1695.98,1425.62 1695.98,121.675 
  "/>
<polyline clip-path="url(#clip5002)" style="stroke:#000000; stroke-width:2; stroke-opacity:0.1; fill:none" points="
  2098.41,1425.62 2098.41,121.675 
  "/>
<polyline clip-path="url(#clip5002)" style="stroke:#000000; stroke-width:2; stroke-opacity:0.1; fill:none" points="
  167.279,1388.71 2352.76,1388.71 
  "/>
<polyline clip-path="url(#clip5002)" style="stroke:#000000; stroke-width:2; stroke-opacity:0.1; fill:none" points="
  167.279,1090.14 2352.76,1090.14 
  "/>
<polyline clip-path="url(#clip5002)" style="stroke:#000000; stroke-width:2; stroke-opacity:0.1; fill:none" points="
  167.279,791.561 2352.76,791.561 
  "/>
<polyline clip-path="url(#clip5002)" style="stroke:#000000; stroke-width:2; stroke-opacity:0.1; fill:none" points="
  167.279,492.985 2352.76,492.985 
  "/>
<polyline clip-path="url(#clip5002)" style="stroke:#000000; stroke-width:2; stroke-opacity:0.1; fill:none" points="
  167.279,194.408 2352.76,194.408 
  "/>
<polyline clip-path="url(#clip5000)" style="stroke:#000000; stroke-width:4; stroke-opacity:1; fill:none" points="
  167.279,1425.62 2352.76,1425.62 
  "/>
<polyline clip-path="url(#clip5000)" style="stroke:#000000; stroke-width:4; stroke-opacity:1; fill:none" points="
  167.279,1425.62 167.279,121.675 
  "/>
<polyline clip-path="url(#clip5000)" style="stroke:#000000; stroke-width:4; stroke-opacity:1; fill:none" points="
  488.698,1425.62 488.698,1406.06 
  "/>
<polyline clip-path="url(#clip5000)" style="stroke:#000000; stroke-width:4; stroke-opacity:1; fill:none" points="
  891.126,1425.62 891.126,1406.06 
  "/>
<polyline clip-path="url(#clip5000)" style="stroke:#000000; stroke-width:4; stroke-opacity:1; fill:none" points="
  1293.55,1425.62 1293.55,1406.06 
  "/>
<polyline clip-path="url(#clip5000)" style="stroke:#000000; stroke-width:4; stroke-opacity:1; fill:none" points="
  1695.98,1425.62 1695.98,1406.06 
  "/>
<polyline clip-path="url(#clip5000)" style="stroke:#000000; stroke-width:4; stroke-opacity:1; fill:none" points="
  2098.41,1425.62 2098.41,1406.06 
  "/>
<polyline clip-path="url(#clip5000)" style="stroke:#000000; stroke-width:4; stroke-opacity:1; fill:none" points="
  167.279,1388.71 200.061,1388.71 
  "/>
<polyline clip-path="url(#clip5000)" style="stroke:#000000; stroke-width:4; stroke-opacity:1; fill:none" points="
  167.279,1090.14 200.061,1090.14 
  "/>
<polyline clip-path="url(#clip5000)" style="stroke:#000000; stroke-width:4; stroke-opacity:1; fill:none" points="
  167.279,791.561 200.061,791.561 
  "/>
<polyline clip-path="url(#clip5000)" style="stroke:#000000; stroke-width:4; stroke-opacity:1; fill:none" points="
  167.279,492.985 200.061,492.985 
  "/>
<polyline clip-path="url(#clip5000)" style="stroke:#000000; stroke-width:4; stroke-opacity:1; fill:none" points="
  167.279,194.408 200.061,194.408 
  "/>
<g clip-path="url(#clip5000)">
<text style="fill:#000000; fill-opacity:1; font-family:Arial,Helvetica Neue,Helvetica,sans-serif; font-size:48px; text-anchor:middle;" transform="rotate(0, 488.698, 1479.62)" x="488.698" y="1479.62">0.48</text>
</g>
<g clip-path="url(#clip5000)">
<text style="fill:#000000; fill-opacity:1; font-family:Arial,Helvetica Neue,Helvetica,sans-serif; font-size:48px; text-anchor:middle;" transform="rotate(0, 891.126, 1479.62)" x="891.126" y="1479.62">0.51</text>
</g>
<g clip-path="url(#clip5000)">
<text style="fill:#000000; fill-opacity:1; font-family:Arial,Helvetica Neue,Helvetica,sans-serif; font-size:48px; text-anchor:middle;" transform="rotate(0, 1293.55, 1479.62)" x="1293.55" y="1479.62">0.54</text>
</g>
<g clip-path="url(#clip5000)">
<text style="fill:#000000; fill-opacity:1; font-family:Arial,Helvetica Neue,Helvetica,sans-serif; font-size:48px; text-anchor:middle;" transform="rotate(0, 1695.98, 1479.62)" x="1695.98" y="1479.62">0.57</text>
</g>
<g clip-path="url(#clip5000)">
<text style="fill:#000000; fill-opacity:1; font-family:Arial,Helvetica Neue,Helvetica,sans-serif; font-size:48px; text-anchor:middle;" transform="rotate(0, 2098.41, 1479.62)" x="2098.41" y="1479.62">0.60</text>
</g>
<g clip-path="url(#clip5000)">
<text style="fill:#000000; fill-opacity:1; font-family:Arial,Helvetica Neue,Helvetica,sans-serif; font-size:48px; text-anchor:end;" transform="rotate(0, 143.279, 1406.21)" x="143.279" y="1406.21">0</text>
</g>
<g clip-path="url(#clip5000)">
<text style="fill:#000000; fill-opacity:1; font-family:Arial,Helvetica Neue,Helvetica,sans-serif; font-size:48px; text-anchor:end;" transform="rotate(0, 143.279, 1107.64)" x="143.279" y="1107.64">200</text>
</g>
<g clip-path="url(#clip5000)">
<text style="fill:#000000; fill-opacity:1; font-family:Arial,Helvetica Neue,Helvetica,sans-serif; font-size:48px; text-anchor:end;" transform="rotate(0, 143.279, 809.061)" x="143.279" y="809.061">400</text>
</g>
<g clip-path="url(#clip5000)">
<text style="fill:#000000; fill-opacity:1; font-family:Arial,Helvetica Neue,Helvetica,sans-serif; font-size:48px; text-anchor:end;" transform="rotate(0, 143.279, 510.485)" x="143.279" y="510.485">600</text>
</g>
<g clip-path="url(#clip5000)">
<text style="fill:#000000; fill-opacity:1; font-family:Arial,Helvetica Neue,Helvetica,sans-serif; font-size:48px; text-anchor:end;" transform="rotate(0, 143.279, 211.908)" x="143.279" y="211.908">800</text>
</g>
<g clip-path="url(#clip5000)">
<text style="fill:#000000; fill-opacity:1; font-family:Arial,Helvetica Neue,Helvetica,sans-serif; font-size:84px; text-anchor:middle;" transform="rotate(0, 1260.02, 73.2)" x="1260.02" y="73.2">histograma t&gt;t_e=2000</text>
</g>
<g clip-path="url(#clip5000)">
<text style="fill:#000000; fill-opacity:1; font-family:Arial,Helvetica Neue,Helvetica,sans-serif; font-size:66px; text-anchor:middle;" transform="rotate(0, 1260.02, 1559.48)" x="1260.02" y="1559.48">u( j=8,i=100; t&gt;te )</text>
</g>
<polygon clip-path="url(#clip5002)" points="
287.484,1281.23 287.484,1388.71 354.556,1388.71 354.556,1281.23 287.484,1281.23 287.484,1281.23 
  " fill="#009af9" fill-rule="evenodd" fill-opacity="1"/>
<polyline clip-path="url(#clip5002)" style="stroke:#000000; stroke-width:4; stroke-opacity:1; fill:none" points="
  287.484,1281.23 287.484,1388.71 354.556,1388.71 354.556,1281.23 287.484,1281.23 
  "/>
<polygon clip-path="url(#clip5002)" points="
354.556,793.054 354.556,1388.71 421.627,1388.71 421.627,793.054 354.556,793.054 354.556,793.054 
  " fill="#009af9" fill-rule="evenodd" fill-opacity="1"/>
<polyline clip-path="url(#clip5002)" style="stroke:#000000; stroke-width:4; stroke-opacity:1; fill:none" points="
  354.556,793.054 354.556,1388.71 421.627,1388.71 421.627,793.054 354.556,793.054 
  "/>
<polygon clip-path="url(#clip5002)" points="
421.627,158.579 421.627,1388.71 488.698,1388.71 488.698,158.579 421.627,158.579 421.627,158.579 
  " fill="#009af9" fill-rule="evenodd" fill-opacity="1"/>
<polyline clip-path="url(#clip5002)" style="stroke:#000000; stroke-width:4; stroke-opacity:1; fill:none" points="
  421.627,158.579 421.627,1388.71 488.698,1388.71 488.698,158.579 421.627,158.579 
  "/>
<polygon clip-path="url(#clip5002)" points="
488.698,198.887 488.698,1388.71 555.769,1388.71 555.769,198.887 488.698,198.887 488.698,198.887 
  " fill="#009af9" fill-rule="evenodd" fill-opacity="1"/>
<polyline clip-path="url(#clip5002)" style="stroke:#000000; stroke-width:4; stroke-opacity:1; fill:none" points="
  488.698,198.887 488.698,1388.71 555.769,1388.71 555.769,198.887 488.698,198.887 
  "/>
<polygon clip-path="url(#clip5002)" points="
555.769,515.378 555.769,1388.71 622.841,1388.71 622.841,515.378 555.769,515.378 555.769,515.378 
  " fill="#009af9" fill-rule="evenodd" fill-opacity="1"/>
<polyline clip-path="url(#clip5002)" style="stroke:#000000; stroke-width:4; stroke-opacity:1; fill:none" points="
  555.769,515.378 555.769,1388.71 622.841,1388.71 622.841,515.378 555.769,515.378 
  "/>
<polygon clip-path="url(#clip5002)" points="
622.841,636.302 622.841,1388.71 689.912,1388.71 689.912,636.302 622.841,636.302 622.841,636.302 
  " fill="#009af9" fill-rule="evenodd" fill-opacity="1"/>
<polyline clip-path="url(#clip5002)" style="stroke:#000000; stroke-width:4; stroke-opacity:1; fill:none" points="
  622.841,636.302 622.841,1388.71 689.912,1388.71 689.912,636.302 622.841,636.302 
  "/>
<polygon clip-path="url(#clip5002)" points="
689.912,649.738 689.912,1388.71 756.983,1388.71 756.983,649.738 689.912,649.738 689.912,649.738 
  " fill="#009af9" fill-rule="evenodd" fill-opacity="1"/>
<polyline clip-path="url(#clip5002)" style="stroke:#000000; stroke-width:4; stroke-opacity:1; fill:none" points="
  689.912,649.738 689.912,1388.71 756.983,1388.71 756.983,649.738 689.912,649.738 
  "/>
<polygon clip-path="url(#clip5002)" points="
756.983,764.69 756.983,1388.71 824.054,1388.71 824.054,764.69 756.983,764.69 756.983,764.69 
  " fill="#009af9" fill-rule="evenodd" fill-opacity="1"/>
<polyline clip-path="url(#clip5002)" style="stroke:#000000; stroke-width:4; stroke-opacity:1; fill:none" points="
  756.983,764.69 756.983,1388.71 824.054,1388.71 824.054,764.69 756.983,764.69 
  "/>
<polygon clip-path="url(#clip5002)" points="
824.054,976.679 824.054,1388.71 891.126,1388.71 891.126,976.679 824.054,976.679 824.054,976.679 
  " fill="#009af9" fill-rule="evenodd" fill-opacity="1"/>
<polyline clip-path="url(#clip5002)" style="stroke:#000000; stroke-width:4; stroke-opacity:1; fill:none" points="
  824.054,976.679 824.054,1388.71 891.126,1388.71 891.126,976.679 824.054,976.679 
  "/>
<polygon clip-path="url(#clip5002)" points="
891.126,1117.01 891.126,1388.71 958.197,1388.71 958.197,1117.01 891.126,1117.01 891.126,1117.01 
  " fill="#009af9" fill-rule="evenodd" fill-opacity="1"/>
<polyline clip-path="url(#clip5002)" style="stroke:#000000; stroke-width:4; stroke-opacity:1; fill:none" points="
  891.126,1117.01 891.126,1388.71 958.197,1388.71 958.197,1117.01 891.126,1117.01 
  "/>
<polygon clip-path="url(#clip5002)" points="
958.197,1176.73 958.197,1388.71 1025.27,1388.71 1025.27,1176.73 958.197,1176.73 958.197,1176.73 
  " fill="#009af9" fill-rule="evenodd" fill-opacity="1"/>
<polyline clip-path="url(#clip5002)" style="stroke:#000000; stroke-width:4; stroke-opacity:1; fill:none" points="
  958.197,1176.73 958.197,1388.71 1025.27,1388.71 1025.27,1176.73 958.197,1176.73 
  "/>
<polygon clip-path="url(#clip5002)" points="
1025.27,1270.78 1025.27,1388.71 1092.34,1388.71 1092.34,1270.78 1025.27,1270.78 1025.27,1270.78 
  " fill="#009af9" fill-rule="evenodd" fill-opacity="1"/>
<polyline clip-path="url(#clip5002)" style="stroke:#000000; stroke-width:4; stroke-opacity:1; fill:none" points="
  1025.27,1270.78 1025.27,1388.71 1092.34,1388.71 1092.34,1270.78 1025.27,1270.78 
  "/>
<polygon clip-path="url(#clip5002)" points="
1092.34,1331.99 1092.34,1388.71 1159.41,1388.71 1159.41,1331.99 1092.34,1331.99 1092.34,1331.99 
  " fill="#009af9" fill-rule="evenodd" fill-opacity="1"/>
<polyline clip-path="url(#clip5002)" style="stroke:#000000; stroke-width:4; stroke-opacity:1; fill:none" points="
  1092.34,1331.99 1092.34,1388.71 1159.41,1388.71 1159.41,1331.99 1092.34,1331.99 
  "/>
<polygon clip-path="url(#clip5002)" points="
1159.41,1349.9 1159.41,1388.71 1226.48,1388.71 1226.48,1349.9 1159.41,1349.9 1159.41,1349.9 
  " fill="#009af9" fill-rule="evenodd" fill-opacity="1"/>
<polyline clip-path="url(#clip5002)" style="stroke:#000000; stroke-width:4; stroke-opacity:1; fill:none" points="
  1159.41,1349.9 1159.41,1388.71 1226.48,1388.71 1226.48,1349.9 1159.41,1349.9 
  "/>
<polygon clip-path="url(#clip5002)" points="
1226.48,1355.87 1226.48,1388.71 1293.55,1388.71 1293.55,1355.87 1226.48,1355.87 1226.48,1355.87 
  " fill="#009af9" fill-rule="evenodd" fill-opacity="1"/>
<polyline clip-path="url(#clip5002)" style="stroke:#000000; stroke-width:4; stroke-opacity:1; fill:none" points="
  1226.48,1355.87 1226.48,1388.71 1293.55,1388.71 1293.55,1355.87 1226.48,1355.87 
  "/>
<polygon clip-path="url(#clip5002)" points="
1293.55,1352.89 1293.55,1388.71 1360.62,1388.71 1360.62,1352.89 1293.55,1352.89 1293.55,1352.89 
  " fill="#009af9" fill-rule="evenodd" fill-opacity="1"/>
<polyline clip-path="url(#clip5002)" style="stroke:#000000; stroke-width:4; stroke-opacity:1; fill:none" points="
  1293.55,1352.89 1293.55,1388.71 1360.62,1388.71 1360.62,1352.89 1293.55,1352.89 
  "/>
<polygon clip-path="url(#clip5002)" points="
1360.62,1343.93 1360.62,1388.71 1427.7,1388.71 1427.7,1343.93 1360.62,1343.93 1360.62,1343.93 
  " fill="#009af9" fill-rule="evenodd" fill-opacity="1"/>
<polyline clip-path="url(#clip5002)" style="stroke:#000000; stroke-width:4; stroke-opacity:1; fill:none" points="
  1360.62,1343.93 1360.62,1388.71 1427.7,1388.71 1427.7,1343.93 1360.62,1343.93 
  "/>
<polygon clip-path="url(#clip5002)" points="
1427.7,1354.38 1427.7,1388.71 1494.77,1388.71 1494.77,1354.38 1427.7,1354.38 1427.7,1354.38 
  " fill="#009af9" fill-rule="evenodd" fill-opacity="1"/>
<polyline clip-path="url(#clip5002)" style="stroke:#000000; stroke-width:4; stroke-opacity:1; fill:none" points="
  1427.7,1354.38 1427.7,1388.71 1494.77,1388.71 1494.77,1354.38 1427.7,1354.38 
  "/>
<polygon clip-path="url(#clip5002)" points="
1494.77,1369.31 1494.77,1388.71 1561.84,1388.71 1561.84,1369.31 1494.77,1369.31 1494.77,1369.31 
  " fill="#009af9" fill-rule="evenodd" fill-opacity="1"/>
<polyline clip-path="url(#clip5002)" style="stroke:#000000; stroke-width:4; stroke-opacity:1; fill:none" points="
  1494.77,1369.31 1494.77,1388.71 1561.84,1388.71 1561.84,1369.31 1494.77,1369.31 
  "/>
<polygon clip-path="url(#clip5002)" points="
1561.84,1381.25 1561.84,1388.71 1628.91,1388.71 1628.91,1381.25 1561.84,1381.25 1561.84,1381.25 
  " fill="#009af9" fill-rule="evenodd" fill-opacity="1"/>
<polyline clip-path="url(#clip5002)" style="stroke:#000000; stroke-width:4; stroke-opacity:1; fill:none" points="
  1561.84,1381.25 1561.84,1388.71 1628.91,1388.71 1628.91,1381.25 1561.84,1381.25 
  "/>
<polygon clip-path="url(#clip5002)" points="
1628.91,1372.29 1628.91,1388.71 1695.98,1388.71 1695.98,1372.29 1628.91,1372.29 1628.91,1372.29 
  " fill="#009af9" fill-rule="evenodd" fill-opacity="1"/>
<polyline clip-path="url(#clip5002)" style="stroke:#000000; stroke-width:4; stroke-opacity:1; fill:none" points="
  1628.91,1372.29 1628.91,1388.71 1695.98,1388.71 1695.98,1372.29 1628.91,1372.29 
  "/>
<polygon clip-path="url(#clip5002)" points="
1695.98,1376.77 1695.98,1388.71 1763.05,1388.71 1763.05,1376.77 1695.98,1376.77 1695.98,1376.77 
  " fill="#009af9" fill-rule="evenodd" fill-opacity="1"/>
<polyline clip-path="url(#clip5002)" style="stroke:#000000; stroke-width:4; stroke-opacity:1; fill:none" points="
  1695.98,1376.77 1695.98,1388.71 1763.05,1388.71 1763.05,1376.77 1695.98,1376.77 
  "/>
<polygon clip-path="url(#clip5002)" points="
1763.05,1385.73 1763.05,1388.71 1830.12,1388.71 1830.12,1385.73 1763.05,1385.73 1763.05,1385.73 
  " fill="#009af9" fill-rule="evenodd" fill-opacity="1"/>
<polyline clip-path="url(#clip5002)" style="stroke:#000000; stroke-width:4; stroke-opacity:1; fill:none" points="
  1763.05,1385.73 1763.05,1388.71 1830.12,1388.71 1830.12,1385.73 1763.05,1385.73 
  "/>
<polygon clip-path="url(#clip5002)" points="
1830.12,1388.71 1830.12,1388.71 1897.19,1388.71 1897.19,1388.71 1830.12,1388.71 1830.12,1388.71 
  " fill="#009af9" fill-rule="evenodd" fill-opacity="1"/>
<polyline clip-path="url(#clip5002)" style="stroke:#000000; stroke-width:4; stroke-opacity:1; fill:none" points="
  1830.12,1388.71 1830.12,1388.71 1897.19,1388.71 1830.12,1388.71 
  "/>
<polygon clip-path="url(#clip5002)" points="
1897.19,1388.71 1897.19,1388.71 1964.27,1388.71 1964.27,1388.71 1897.19,1388.71 1897.19,1388.71 
  " fill="#009af9" fill-rule="evenodd" fill-opacity="1"/>
<polyline clip-path="url(#clip5002)" style="stroke:#000000; stroke-width:4; stroke-opacity:1; fill:none" points="
  1897.19,1388.71 1897.19,1388.71 1964.27,1388.71 1897.19,1388.71 
  "/>
<polygon clip-path="url(#clip5002)" points="
1964.27,1382.74 1964.27,1388.71 2031.34,1388.71 2031.34,1382.74 1964.27,1382.74 1964.27,1382.74 
  " fill="#009af9" fill-rule="evenodd" fill-opacity="1"/>
<polyline clip-path="url(#clip5002)" style="stroke:#000000; stroke-width:4; stroke-opacity:1; fill:none" points="
  1964.27,1382.74 1964.27,1388.71 2031.34,1388.71 2031.34,1382.74 1964.27,1382.74 
  "/>
<polygon clip-path="url(#clip5002)" points="
2031.34,1378.26 2031.34,1388.71 2098.41,1388.71 2098.41,1378.26 2031.34,1378.26 2031.34,1378.26 
  " fill="#009af9" fill-rule="evenodd" fill-opacity="1"/>
<polyline clip-path="url(#clip5002)" style="stroke:#000000; stroke-width:4; stroke-opacity:1; fill:none" points="
  2031.34,1378.26 2031.34,1388.71 2098.41,1388.71 2098.41,1378.26 2031.34,1378.26 
  "/>
<polygon clip-path="url(#clip5002)" points="
2098.41,1378.26 2098.41,1388.71 2165.48,1388.71 2165.48,1378.26 2098.41,1378.26 2098.41,1378.26 
  " fill="#009af9" fill-rule="evenodd" fill-opacity="1"/>
<polyline clip-path="url(#clip5002)" style="stroke:#000000; stroke-width:4; stroke-opacity:1; fill:none" points="
  2098.41,1378.26 2098.41,1388.71 2165.48,1388.71 2165.48,1378.26 2098.41,1378.26 
  "/>
<polygon clip-path="url(#clip5002)" points="
2165.48,1376.77 2165.48,1388.71 2232.55,1388.71 2232.55,1376.77 2165.48,1376.77 2165.48,1376.77 
  " fill="#009af9" fill-rule="evenodd" fill-opacity="1"/>
<polyline clip-path="url(#clip5002)" style="stroke:#000000; stroke-width:4; stroke-opacity:1; fill:none" points="
  2165.48,1376.77 2165.48,1388.71 2232.55,1388.71 2232.55,1376.77 2165.48,1376.77 
  "/>
</svg>
