<?xml version="1.0" encoding="utf-8"?>
<svg xmlns="http://www.w3.org/2000/svg" xmlns:xlink="http://www.w3.org/1999/xlink" width="600" height="400" viewBox="0 0 2400 1600">
<defs>
  <clipPath id="clip4600">
    <rect x="0" y="0" width="2400" height="1600"/>
  </clipPath>
</defs>
<polygon clip-path="url(#clip4600)" points="
0,1600 2400,1600 2400,0 0,0 
  " fill="#ffffff" fill-rule="evenodd" fill-opacity="1"/>
<defs>
  <clipPath id="clip4601">
    <rect x="480" y="0" width="1681" height="1600"/>
  </clipPath>
</defs>
<polygon clip-path="url(#clip4600)" points="
140.517,1425.62 1146.07,1425.62 1146.07,121.675 140.517,121.675 
  " fill="#ffffff" fill-rule="evenodd" fill-opacity="1"/>
<defs>
  <clipPath id="clip4602">
    <rect x="140" y="121" width="1007" height="1305"/>
  </clipPath>
</defs>
<polyline clip-path="url(#clip4602)" style="stroke:#000000; stroke-width:2; stroke-opacity:0.1; fill:none" points="
  168.976,1425.62 168.976,121.675 
  "/>
<polyline clip-path="url(#clip4602)" style="stroke:#000000; stroke-width:2; stroke-opacity:0.1; fill:none" points="
  485.186,1425.62 485.186,121.675 
  "/>
<polyline clip-path="url(#clip4602)" style="stroke:#000000; stroke-width:2; stroke-opacity:0.1; fill:none" points="
  801.396,1425.62 801.396,121.675 
  "/>
<polyline clip-path="url(#clip4602)" style="stroke:#000000; stroke-width:2; stroke-opacity:0.1; fill:none" points="
  1117.61,1425.62 1117.61,121.675 
  "/>
<polyline clip-path="url(#clip4602)" style="stroke:#000000; stroke-width:2; stroke-opacity:0.1; fill:none" points="
  140.517,1389.11 1146.07,1389.11 
  "/>
<polyline clip-path="url(#clip4602)" style="stroke:#000000; stroke-width:2; stroke-opacity:0.1; fill:none" points="
  140.517,1157.85 1146.07,1157.85 
  "/>
<polyline clip-path="url(#clip4602)" style="stroke:#000000; stroke-width:2; stroke-opacity:0.1; fill:none" points="
  140.517,926.578 1146.07,926.578 
  "/>
<polyline clip-path="url(#clip4602)" style="stroke:#000000; stroke-width:2; stroke-opacity:0.1; fill:none" points="
  140.517,695.31 1146.07,695.31 
  "/>
<polyline clip-path="url(#clip4602)" style="stroke:#000000; stroke-width:2; stroke-opacity:0.1; fill:none" points="
  140.517,464.043 1146.07,464.043 
  "/>
<polyline clip-path="url(#clip4602)" style="stroke:#000000; stroke-width:2; stroke-opacity:0.1; fill:none" points="
  140.517,232.775 1146.07,232.775 
  "/>
<polyline clip-path="url(#clip4600)" style="stroke:#000000; stroke-width:4; stroke-opacity:1; fill:none" points="
  140.517,1425.62 1146.07,1425.62 
  "/>
<polyline clip-path="url(#clip4600)" style="stroke:#000000; stroke-width:4; stroke-opacity:1; fill:none" points="
  140.517,1425.62 140.517,121.675 
  "/>
<polyline clip-path="url(#clip4600)" style="stroke:#000000; stroke-width:4; stroke-opacity:1; fill:none" points="
  168.976,1425.62 168.976,1406.06 
  "/>
<polyline clip-path="url(#clip4600)" style="stroke:#000000; stroke-width:4; stroke-opacity:1; fill:none" points="
  485.186,1425.62 485.186,1406.06 
  "/>
<polyline clip-path="url(#clip4600)" style="stroke:#000000; stroke-width:4; stroke-opacity:1; fill:none" points="
  801.396,1425.62 801.396,1406.06 
  "/>
<polyline clip-path="url(#clip4600)" style="stroke:#000000; stroke-width:4; stroke-opacity:1; fill:none" points="
  1117.61,1425.62 1117.61,1406.06 
  "/>
<polyline clip-path="url(#clip4600)" style="stroke:#000000; stroke-width:4; stroke-opacity:1; fill:none" points="
  140.517,1389.11 155.6,1389.11 
  "/>
<polyline clip-path="url(#clip4600)" style="stroke:#000000; stroke-width:4; stroke-opacity:1; fill:none" points="
  140.517,1157.85 155.6,1157.85 
  "/>
<polyline clip-path="url(#clip4600)" style="stroke:#000000; stroke-width:4; stroke-opacity:1; fill:none" points="
  140.517,926.578 155.6,926.578 
  "/>
<polyline clip-path="url(#clip4600)" style="stroke:#000000; stroke-width:4; stroke-opacity:1; fill:none" points="
  140.517,695.31 155.6,695.31 
  "/>
<polyline clip-path="url(#clip4600)" style="stroke:#000000; stroke-width:4; stroke-opacity:1; fill:none" points="
  140.517,464.043 155.6,464.043 
  "/>
<polyline clip-path="url(#clip4600)" style="stroke:#000000; stroke-width:4; stroke-opacity:1; fill:none" points="
  140.517,232.775 155.6,232.775 
  "/>
<g clip-path="url(#clip4600)">
<text style="fill:#000000; fill-opacity:1; font-family:Arial,Helvetica Neue,Helvetica,sans-serif; font-size:48px; text-anchor:middle;" transform="rotate(0, 168.976, 1479.62)" x="168.976" y="1479.62">0</text>
</g>
<g clip-path="url(#clip4600)">
<text style="fill:#000000; fill-opacity:1; font-family:Arial,Helvetica Neue,Helvetica,sans-serif; font-size:48px; text-anchor:middle;" transform="rotate(0, 485.186, 1479.62)" x="485.186" y="1479.62">100</text>
</g>
<g clip-path="url(#clip4600)">
<text style="fill:#000000; fill-opacity:1; font-family:Arial,Helvetica Neue,Helvetica,sans-serif; font-size:48px; text-anchor:middle;" transform="rotate(0, 801.396, 1479.62)" x="801.396" y="1479.62">200</text>
</g>
<g clip-path="url(#clip4600)">
<text style="fill:#000000; fill-opacity:1; font-family:Arial,Helvetica Neue,Helvetica,sans-serif; font-size:48px; text-anchor:middle;" transform="rotate(0, 1117.61, 1479.62)" x="1117.61" y="1479.62">300</text>
</g>
<g clip-path="url(#clip4600)">
<text style="fill:#000000; fill-opacity:1; font-family:Arial,Helvetica Neue,Helvetica,sans-serif; font-size:48px; text-anchor:end;" transform="rotate(0, 116.517, 1406.61)" x="116.517" y="1406.61">0</text>
</g>
<g clip-path="url(#clip4600)">
<text style="fill:#000000; fill-opacity:1; font-family:Arial,Helvetica Neue,Helvetica,sans-serif; font-size:48px; text-anchor:end;" transform="rotate(0, 116.517, 1175.35)" x="116.517" y="1175.35">5</text>
</g>
<g clip-path="url(#clip4600)">
<text style="fill:#000000; fill-opacity:1; font-family:Arial,Helvetica Neue,Helvetica,sans-serif; font-size:48px; text-anchor:end;" transform="rotate(0, 116.517, 944.078)" x="116.517" y="944.078">10</text>
</g>
<g clip-path="url(#clip4600)">
<text style="fill:#000000; fill-opacity:1; font-family:Arial,Helvetica Neue,Helvetica,sans-serif; font-size:48px; text-anchor:end;" transform="rotate(0, 116.517, 712.81)" x="116.517" y="712.81">15</text>
</g>
<g clip-path="url(#clip4600)">
<text style="fill:#000000; fill-opacity:1; font-family:Arial,Helvetica Neue,Helvetica,sans-serif; font-size:48px; text-anchor:end;" transform="rotate(0, 116.517, 481.543)" x="116.517" y="481.543">20</text>
</g>
<g clip-path="url(#clip4600)">
<text style="fill:#000000; fill-opacity:1; font-family:Arial,Helvetica Neue,Helvetica,sans-serif; font-size:48px; text-anchor:end;" transform="rotate(0, 116.517, 250.275)" x="116.517" y="250.275">25</text>
</g>
<g clip-path="url(#clip4600)">
<text style="fill:#000000; fill-opacity:1; font-family:Arial,Helvetica Neue,Helvetica,sans-serif; font-size:84px; text-anchor:middle;" transform="rotate(0, 643.291, 73.2)" x="643.291" y="73.2">Distribucion de contaminantes</text>
</g>
<g clip-path="url(#clip4600)">
<text style="fill:#000000; fill-opacity:1; font-family:Arial,Helvetica Neue,Helvetica,sans-serif; font-size:66px; text-anchor:middle;" transform="rotate(0, 643.291, 1559.48)" x="643.291" y="1559.48">x</text>
</g>
<polyline clip-path="url(#clip4602)" style="stroke:#009af9; stroke-width:4; stroke-opacity:1; fill:none" points="
  168.976,1388.7 173.719,1206.4 178.462,1102.25 183.205,987.734 187.948,878.061 192.691,780.578 197.435,699.505 202.178,622.082 206.921,528.516 211.664,479.911 
  216.407,479.152 221.15,461.291 225.894,431.394 230.637,387.466 235.38,331.792 240.123,326.792 244.866,319.719 249.609,306.707 254.352,280.979 259.096,293.852 
  263.839,284.036 268.582,256.713 273.325,258.098 278.068,250.051 282.811,242.827 287.555,239.809 292.298,227.157 297.041,235.573 301.784,230.153 306.527,243.083 
  311.27,246.303 316.013,237.397 320.757,224.829 325.5,216.907 330.243,202.563 334.986,182.355 339.729,219.169 344.472,240.303 349.216,239.288 353.959,233.126 
  358.702,180.013 363.445,212.438 368.188,197.634 372.931,201.486 377.674,158.579 382.418,232.936 387.161,244.571 391.904,234.796 396.647,214.867 401.39,163.166 
  406.133,201.492 410.877,204.534 415.62,198.543 420.363,176.053 425.106,228.684 429.849,229.253 434.592,219.786 439.335,219.222 444.079,215.926 448.822,184.858 
  453.565,209.587 458.308,200.174 463.051,169.078 467.794,210.13 472.538,237.675 477.281,247.821 482.024,238.526 486.767,215.301 491.51,178.938 496.253,185.672 
  500.996,170.232 505.74,176.693 510.483,238.622 515.226,263.669 519.969,264.168 524.712,248.677 529.455,218.687 534.199,182.414 538.942,192.453 543.685,197.512 
  548.428,219.158 553.171,266.665 557.914,281.881 562.657,279.345 567.401,271.751 572.144,260.187 576.887,237.159 581.63,253.456 586.373,276.489 591.116,306.869 
  595.86,351.51 600.603,380.183 605.346,406.69 610.089,424.924 614.832,427.693 619.575,445.779 624.318,508.976 629.062,559.888 633.805,646.83 638.548,734.495 
  643.291,778.835 648.034,793.382 652.777,785.397 657.521,778.793 662.264,752.389 667.007,739.305 671.75,772.23 676.493,773.756 681.236,771.502 685.979,739.972 
  690.723,664.665 695.466,596.532 700.209,537.612 704.952,471.129 709.695,394.037 714.438,402.612 719.182,384.845 723.925,362.359 728.668,327.988 733.411,325.449 
  738.154,315.273 742.897,301.591 747.64,283.831 752.384,232.679 757.127,241.878 761.87,239.549 766.613,232.439 771.356,258.61 776.099,262.386 780.843,253.693 
  785.586,244.361 790.329,233.677 795.072,182.541 799.815,200.253 804.558,189.991 809.301,227.201 814.045,237.271 818.788,233.288 823.531,226.501 828.274,224.204 
  833.017,179.654 837.76,213.255 842.504,169.552 847.247,219.865 851.99,228.693 856.733,222.034 861.476,217.803 866.219,221.736 870.962,228.975 875.706,197.982 
  880.449,229.025 885.192,218.513 889.935,195.707 894.678,211.952 899.421,218.594 904.164,222.639 908.908,229.472 913.651,192.231 918.394,239.83 923.137,229.9 
  927.88,217.168 932.623,195.46 937.367,221.35 942.11,225.696 946.853,225.292 951.596,230.258 956.339,238.835 961.082,242.626 965.825,236.897 970.569,230.161 
  975.312,231.393 980.055,207.071 984.798,234.738 989.541,237.87 994.284,244.433 999.028,257.829 1003.77,266.967 1008.51,265.504 1013.26,262.471 1018,267.52 
  1022.74,240.459 1027.49,283.48 1032.23,293.693 1036.97,263.124 1041.72,333.522 1046.46,356.364 1051.2,371.169 1055.95,339.836 1060.69,413.932 1065.43,447.192 
  1070.17,434.183 1074.92,517.962 1079.66,537.223 1084.4,637.777 1089.15,672.745 1093.89,781.047 1098.63,868.269 1103.38,976.215 1108.12,1102.65 1112.86,1241.54 
  1117.61,1388.71 
  "/>
<polygon clip-path="url(#clip4600)" points="
1347.21,1425.62 2352.76,1425.62 2352.76,121.675 1347.21,121.675 
  " fill="#ffffff" fill-rule="evenodd" fill-opacity="1"/>
<defs>
  <clipPath id="clip4603">
    <rect x="1347" y="121" width="1007" height="1305"/>
  </clipPath>
</defs>
<polyline clip-path="url(#clip4603)" style="stroke:#000000; stroke-width:2; stroke-opacity:0.1; fill:none" points="
  1375.67,1425.62 1375.67,121.675 
  "/>
<polyline clip-path="url(#clip4603)" style="stroke:#000000; stroke-width:2; stroke-opacity:0.1; fill:none" points="
  1612.82,1425.62 1612.82,121.675 
  "/>
<polyline clip-path="url(#clip4603)" style="stroke:#000000; stroke-width:2; stroke-opacity:0.1; fill:none" points="
  1849.98,1425.62 1849.98,121.675 
  "/>
<polyline clip-path="url(#clip4603)" style="stroke:#000000; stroke-width:2; stroke-opacity:0.1; fill:none" points="
  2087.14,1425.62 2087.14,121.675 
  "/>
<polyline clip-path="url(#clip4603)" style="stroke:#000000; stroke-width:2; stroke-opacity:0.1; fill:none" points="
  2324.3,1425.62 2324.3,121.675 
  "/>
<polyline clip-path="url(#clip4603)" style="stroke:#000000; stroke-width:2; stroke-opacity:0.1; fill:none" points="
  1347.21,1366.47 2352.76,1366.47 
  "/>
<polyline clip-path="url(#clip4603)" style="stroke:#000000; stroke-width:2; stroke-opacity:0.1; fill:none" points="
  1347.21,1163.27 2352.76,1163.27 
  "/>
<polyline clip-path="url(#clip4603)" style="stroke:#000000; stroke-width:2; stroke-opacity:0.1; fill:none" points="
  1347.21,960.07 2352.76,960.07 
  "/>
<polyline clip-path="url(#clip4603)" style="stroke:#000000; stroke-width:2; stroke-opacity:0.1; fill:none" points="
  1347.21,756.872 2352.76,756.872 
  "/>
<polyline clip-path="url(#clip4603)" style="stroke:#000000; stroke-width:2; stroke-opacity:0.1; fill:none" points="
  1347.21,553.674 2352.76,553.674 
  "/>
<polyline clip-path="url(#clip4603)" style="stroke:#000000; stroke-width:2; stroke-opacity:0.1; fill:none" points="
  1347.21,350.476 2352.76,350.476 
  "/>
<polyline clip-path="url(#clip4603)" style="stroke:#000000; stroke-width:2; stroke-opacity:0.1; fill:none" points="
  1347.21,147.277 2352.76,147.277 
  "/>
<polyline clip-path="url(#clip4600)" style="stroke:#000000; stroke-width:4; stroke-opacity:1; fill:none" points="
  1347.21,1425.62 2352.76,1425.62 
  "/>
<polyline clip-path="url(#clip4600)" style="stroke:#000000; stroke-width:4; stroke-opacity:1; fill:none" points="
  1347.21,1425.62 1347.21,121.675 
  "/>
<polyline clip-path="url(#clip4600)" style="stroke:#000000; stroke-width:4; stroke-opacity:1; fill:none" points="
  1375.67,1425.62 1375.67,1406.06 
  "/>
<polyline clip-path="url(#clip4600)" style="stroke:#000000; stroke-width:4; stroke-opacity:1; fill:none" points="
  1612.82,1425.62 1612.82,1406.06 
  "/>
<polyline clip-path="url(#clip4600)" style="stroke:#000000; stroke-width:4; stroke-opacity:1; fill:none" points="
  1849.98,1425.62 1849.98,1406.06 
  "/>
<polyline clip-path="url(#clip4600)" style="stroke:#000000; stroke-width:4; stroke-opacity:1; fill:none" points="
  2087.14,1425.62 2087.14,1406.06 
  "/>
<polyline clip-path="url(#clip4600)" style="stroke:#000000; stroke-width:4; stroke-opacity:1; fill:none" points="
  2324.3,1425.62 2324.3,1406.06 
  "/>
<polyline clip-path="url(#clip4600)" style="stroke:#000000; stroke-width:4; stroke-opacity:1; fill:none" points="
  1347.21,1366.47 1362.29,1366.47 
  "/>
<polyline clip-path="url(#clip4600)" style="stroke:#000000; stroke-width:4; stroke-opacity:1; fill:none" points="
  1347.21,1163.27 1362.29,1163.27 
  "/>
<polyline clip-path="url(#clip4600)" style="stroke:#000000; stroke-width:4; stroke-opacity:1; fill:none" points="
  1347.21,960.07 1362.29,960.07 
  "/>
<polyline clip-path="url(#clip4600)" style="stroke:#000000; stroke-width:4; stroke-opacity:1; fill:none" points="
  1347.21,756.872 1362.29,756.872 
  "/>
<polyline clip-path="url(#clip4600)" style="stroke:#000000; stroke-width:4; stroke-opacity:1; fill:none" points="
  1347.21,553.674 1362.29,553.674 
  "/>
<polyline clip-path="url(#clip4600)" style="stroke:#000000; stroke-width:4; stroke-opacity:1; fill:none" points="
  1347.21,350.476 1362.29,350.476 
  "/>
<polyline clip-path="url(#clip4600)" style="stroke:#000000; stroke-width:4; stroke-opacity:1; fill:none" points="
  1347.21,147.277 1362.29,147.277 
  "/>
<g clip-path="url(#clip4600)">
<text style="fill:#000000; fill-opacity:1; font-family:Arial,Helvetica Neue,Helvetica,sans-serif; font-size:48px; text-anchor:middle;" transform="rotate(0, 1375.67, 1479.62)" x="1375.67" y="1479.62">-10</text>
</g>
<g clip-path="url(#clip4600)">
<text style="fill:#000000; fill-opacity:1; font-family:Arial,Helvetica Neue,Helvetica,sans-serif; font-size:48px; text-anchor:middle;" transform="rotate(0, 1612.82, 1479.62)" x="1612.82" y="1479.62">-5</text>
</g>
<g clip-path="url(#clip4600)">
<text style="fill:#000000; fill-opacity:1; font-family:Arial,Helvetica Neue,Helvetica,sans-serif; font-size:48px; text-anchor:middle;" transform="rotate(0, 1849.98, 1479.62)" x="1849.98" y="1479.62">0</text>
</g>
<g clip-path="url(#clip4600)">
<text style="fill:#000000; fill-opacity:1; font-family:Arial,Helvetica Neue,Helvetica,sans-serif; font-size:48px; text-anchor:middle;" transform="rotate(0, 2087.14, 1479.62)" x="2087.14" y="1479.62">5</text>
</g>
<g clip-path="url(#clip4600)">
<text style="fill:#000000; fill-opacity:1; font-family:Arial,Helvetica Neue,Helvetica,sans-serif; font-size:48px; text-anchor:middle;" transform="rotate(0, 2324.3, 1479.62)" x="2324.3" y="1479.62">10</text>
</g>
<g clip-path="url(#clip4600)">
<text style="fill:#000000; fill-opacity:1; font-family:Arial,Helvetica Neue,Helvetica,sans-serif; font-size:48px; text-anchor:end;" transform="rotate(0, 1323.21, 1383.97)" x="1323.21" y="1383.97">0.4</text>
</g>
<g clip-path="url(#clip4600)">
<text style="fill:#000000; fill-opacity:1; font-family:Arial,Helvetica Neue,Helvetica,sans-serif; font-size:48px; text-anchor:end;" transform="rotate(0, 1323.21, 1180.77)" x="1323.21" y="1180.77">0.5</text>
</g>
<g clip-path="url(#clip4600)">
<text style="fill:#000000; fill-opacity:1; font-family:Arial,Helvetica Neue,Helvetica,sans-serif; font-size:48px; text-anchor:end;" transform="rotate(0, 1323.21, 977.57)" x="1323.21" y="977.57">0.6</text>
</g>
<g clip-path="url(#clip4600)">
<text style="fill:#000000; fill-opacity:1; font-family:Arial,Helvetica Neue,Helvetica,sans-serif; font-size:48px; text-anchor:end;" transform="rotate(0, 1323.21, 774.372)" x="1323.21" y="774.372">0.7</text>
</g>
<g clip-path="url(#clip4600)">
<text style="fill:#000000; fill-opacity:1; font-family:Arial,Helvetica Neue,Helvetica,sans-serif; font-size:48px; text-anchor:end;" transform="rotate(0, 1323.21, 571.174)" x="1323.21" y="571.174">0.8</text>
</g>
<g clip-path="url(#clip4600)">
<text style="fill:#000000; fill-opacity:1; font-family:Arial,Helvetica Neue,Helvetica,sans-serif; font-size:48px; text-anchor:end;" transform="rotate(0, 1323.21, 367.976)" x="1323.21" y="367.976">0.9</text>
</g>
<g clip-path="url(#clip4600)">
<text style="fill:#000000; fill-opacity:1; font-family:Arial,Helvetica Neue,Helvetica,sans-serif; font-size:48px; text-anchor:end;" transform="rotate(0, 1323.21, 164.777)" x="1323.21" y="164.777">1.0</text>
</g>
<g clip-path="url(#clip4600)">
<text style="fill:#000000; fill-opacity:1; font-family:Arial,Helvetica Neue,Helvetica,sans-serif; font-size:84px; text-anchor:middle;" transform="rotate(0, 1849.98, 73.2)" x="1849.98" y="73.2">Distribucion de contaminantes</text>
</g>
<g clip-path="url(#clip4600)">
<text style="fill:#000000; fill-opacity:1; font-family:Arial,Helvetica Neue,Helvetica,sans-serif; font-size:66px; text-anchor:middle;" transform="rotate(0, 1849.98, 1559.48)" x="1849.98" y="1559.48">y</text>
</g>
<polyline clip-path="url(#clip4603)" style="stroke:#009af9; stroke-width:4; stroke-opacity:1; fill:none" points="
  1375.67,1388.63 1407.29,1291.23 1438.91,1193.51 1470.53,1095.54 1502.15,997.283 1533.77,898.71 1565.39,799.773 1597.01,700.421 1628.63,600.599 1660.26,500.256 
  1691.88,429.301 1723.5,357.745 1755.12,285.563 1786.74,243.835 1818.36,201.801 1849.98,158.579 1881.6,202.371 1913.22,244.89 1944.84,286.954 1976.47,359.295 
  2008.09,430.843 2039.71,501.662 2071.33,601.791 2102.95,701.374 2134.57,800.498 2166.19,899.241 2197.81,997.66 2229.43,1095.8 2261.05,1193.69 2292.68,1291.35 
  2324.3,1388.71 
  "/>
</svg>
